# xmcd
#
# Track frame offsets: 
#        150
#        9114
#        23722
#        34287
#        54712
#        79067
#        107582
#        119953
#        138066
#        153971
#
# Disc length: 2456 seconds
#
# Revision: 0
# Processed by: cddbd v1.5.2PL0 Copyright (c) Steve Scherf et al.
# Submitted via: ExactAudioCopy v0.99pb4
#
DISCID=7609960a
DTITLE=Lokomotiv - Rock N' Roll Death Toll
DYEAR=2006
DGENRE=Hard Rock
TTITLE0=House Of Lies
TTITLE1=Ride With Me
TTITLE2=State Of Mind
TTITLE3=Ashes Of Home
TTITLE4=Inert Passerby
TTITLE5=Slow Grind
TTITLE6=Anthrmthrfuckr
TTITLE7=Hear In Two
TTITLE8=Five Alive
TTITLE9=Madre Salvacion
EXTD=
EXTT0=
EXTT1=
EXTT2=
EXTT3=
EXTT4=
EXTT5=
EXTT6=
EXTT7=
EXTT8=
EXTT9=
PLAYORDER=
